<?xml version="1.0" encoding="UTF-8" standalone="no"?>
<svg
   viewBox="0 0 90 90"
   version="1.1"
   id="svg4"
   sodipodi:docname="copy.svg"
   width="90"
   height="90"
   inkscape:version="1.2.2 (b0a8486541, 2022-12-01)"
   xmlns:inkscape="http://www.inkscape.org/namespaces/inkscape"
   xmlns:sodipodi="http://sodipodi.sourceforge.net/DTD/sodipodi-0.dtd"
   xmlns="http://www.w3.org/2000/svg"
   xmlns:svg="http://www.w3.org/2000/svg">
  <defs
     id="defs8" />
  <sodipodi:namedview
     id="namedview6"
     pagecolor="#ffffff"
     bordercolor="#666666"
     borderopacity="1.0"
     inkscape:showpageshadow="2"
     inkscape:pageopacity="0.0"
     inkscape:pagecheckerboard="0"
     inkscape:deskcolor="#d1d1d1"
     showgrid="false"
     inkscape:zoom="3.6875"
     inkscape:cx="104.67797"
     inkscape:cy="69.016949"
     inkscape:window-width="1696"
     inkscape:window-height="1113"
     inkscape:window-x="26"
     inkscape:window-y="23"
     inkscape:window-maximized="0"
     inkscape:current-layer="svg4" />
  <path
     d="M 71.55468,58.277341 H 39.689064 c -1.460507,0 -2.655467,-1.194961 -2.655467,-2.655468 v -42.48749 c 0,-1.460506 1.19496,-2.655467 2.655467,-2.655467 h 23.251942 l 11.269143,11.269142 v 33.873815 c 0,1.460507 -1.19496,2.655468 -2.655469,2.655468 z M 39.689064,66.243744 H 71.55468 c 5.858627,0 10.621874,-4.763245 10.621874,-10.621871 V 21.748058 c 0,-2.107776 -0.846432,-4.132572 -2.340132,-5.626273 L 68.583875,4.8526426 C 67.090175,3.3589419 65.06538,2.5125118 62.957603,2.5125118 H 39.689064 c -5.858627,0 -10.621871,4.7632461 -10.621871,10.6218712 v 42.48749 c 0,5.858626 4.763244,10.621871 10.621871,10.621871 z M 18.44532,23.756257 c -5.858625,0 -10.6218742,4.763244 -10.6218742,10.621871 v 42.487489 c 0,5.858626 4.7632482,10.621871 10.6218742,10.621871 h 31.865617 c 5.858626,0 10.621872,-4.763245 10.621872,-10.621871 v -5.310935 h -7.966405 v 5.310935 c 0,1.460507 -1.19496,2.655468 -2.655467,2.655468 H 18.44532 c -1.460507,0 -2.655466,-1.194961 -2.655466,-2.655468 V 34.378128 c 0,-1.460507 1.194959,-2.655467 2.655466,-2.655467 h 5.310936 v -7.966404 z"
     id="path2"
     style="stroke-width:1" />
</svg>
