<?xml version="1.0" encoding="UTF-8" standalone="no"?>
<svg
   fill="#000000"
   width="90"
   height="90"
   viewBox="0 0 2.25 2.25"
   version="1.1"
   id="svg4"
   sodipodi:docname="cut.svg"
   inkscape:version="1.2.2 (b0a8486541, 2022-12-01)"
   xmlns:inkscape="http://www.inkscape.org/namespaces/inkscape"
   xmlns:sodipodi="http://sodipodi.sourceforge.net/DTD/sodipodi-0.dtd"
   xmlns="http://www.w3.org/2000/svg"
   xmlns:svg="http://www.w3.org/2000/svg">
  <defs
     id="defs8" />
  <sodipodi:namedview
     id="namedview6"
     pagecolor="#ffffff"
     bordercolor="#666666"
     borderopacity="1.0"
     inkscape:showpageshadow="2"
     inkscape:pageopacity="0.0"
     inkscape:pagecheckerboard="0"
     inkscape:deskcolor="#d1d1d1"
     showgrid="false"
     inkscape:zoom="2.36"
     inkscape:cx="176.27119"
     inkscape:cy="102.54237"
     inkscape:window-width="2508"
     inkscape:window-height="1374"
     inkscape:window-x="0"
     inkscape:window-y="0"
     inkscape:window-maximized="1"
     inkscape:current-layer="svg4" />
  <path
     d="m 1.1009645,1.2851639 0.568569,0.4163117 c 0.046848,0.035136 0.1320272,0.062818 0.1905875,0.062818 H 2.1901892 L 0.79432052,0.74001921 A 0.37265753,0.37265753 0 1 0 0.64632225,0.95190163 L 0.88375832,1.1254535 0.64632225,1.2990056 A 0.37265753,0.37265753 0 1 0 0.79325578,1.510888 L 1.1020292,1.2851639 Z M 0.43337509,0.80603282 a 0.15971038,0.15971038 0 1 1 0,-0.31942074 0.15971038,0.15971038 0 0 1 0,0.31942074 z m 0,0.95826228 a 0.15971042,0.15971042 0 1 1 0,-0.3194208 0.15971042,0.15971042 0 0 1 0,0.3194208 z M 1.6684687,0.54943148 A 0.37585174,0.37585174 0 0 1 1.860121,0.48661206 H 2.1901892 L 1.3916374,1.0722167 1.1733664,0.91250641 Z"
     id="path2"
     style="stroke-width:1" />
</svg>
