<?xml version="1.0" encoding="UTF-8" standalone="no"?>
<svg
   id="WORKING_ICONS"
   data-name="WORKING ICONS"
   width="20"
   height="20"
   viewBox="0 0 20 20"
   version="1.1"
   sodipodi:docname="leave-motorway-left.svg"
   inkscape:version="1.1.1 (3bf5ae0d25, 2021-09-20)"
   xmlns:inkscape="http://www.inkscape.org/namespaces/inkscape"
   xmlns:sodipodi="http://sodipodi.sourceforge.net/DTD/sodipodi-0.dtd"
   xmlns="http://www.w3.org/2000/svg"
   xmlns:svg="http://www.w3.org/2000/svg">
  <defs
     id="defs833" />
  <sodipodi:namedview
     id="namedview831"
     pagecolor="#ffffff"
     bordercolor="#666666"
     borderopacity="1.0"
     inkscape:pageshadow="2"
     inkscape:pageopacity="0.0"
     inkscape:pagecheckerboard="0"
     showgrid="false"
     inkscape:zoom="35.8"
     inkscape:cx="9.5530726"
     inkscape:cy="10"
     inkscape:window-width="1920"
     inkscape:window-height="1136"
     inkscape:window-x="1920"
     inkscape:window-y="0"
     inkscape:window-maximized="1"
     inkscape:current-layer="WORKING_ICONS" />
  <title
     id="title826">direction</title>
  <path
     fill="#000000"
     d="m 11.586793,2.3185361 a 0.29744,0.29744 0 0 0 -0.297101,0.29712 V 17.621416 a 0.29744,0.29744 0 0 0 0.297101,0.29712 h 1.0058 a 0.29744,0.29744 0 0 0 0.2971,-0.29712 V 2.6156561 a 0.29744,0.29744 0 0 0 -0.2971,-0.29712 h -1.0058 m 0,-0.2 h 1.0058 a 0.49711,0.49711 0 0 1 0.4971,0.49712 V 17.621416 a 0.49711,0.49711 0 0 1 -0.4971,0.49712 h -1.0058 a 0.49711,0.49711 0 0 1 -0.497101,-0.49712 V 2.6156561 a 0.49711,0.49711 0 0 1 0.497101,-0.49712 z m 1.4888,12.0429999 v 3.46082 a 0.49621,0.49621 0 0 1 -0.49615,0.49618 h -1.00653 a 0.49614,0.49614 0 0 1 -0.496151,-0.49683 l 0.0047,-3.60767 A 5.21819,5.21819 0 0 0 9.4164624,9.8700361 l -2.44818,-2.06561 a 0.35758,0.35758 0 0 0 -0.6405,0.16266 l -0.91821,3.1105999 a 0.38663,0.38663 0 0 1 -0.73944,-0.09915 l -1.58044,-7.8599999 8.0047596,0.44965 a 0.38658,0.38658 0 0 1 0.20294,0.71777 l -2.9489096,1.35016 a 0.3576,0.3576 0 0 0 -0.07019,0.6571 l 2.4574596,2.07386 a 7.25157,7.25157 0 0 1 2.339841,5.7944599 z"
     id="path828" />
</svg>
