<?xml version="1.0" encoding="UTF-8" standalone="no"?>
<svg
   xmlns="http://www.w3.org/2000/svg"
   xmlns:sodipodi="http://sodipodi.sourceforge.net/DTD/sodipodi-0.dtd"
   xmlns:inkscape="http://www.inkscape.org/namespaces/inkscape"
   id="WORKING_ICONS"
   data-name="WORKING ICONS"
   width="20"
   height="20"
   viewBox="0 0 20 20"
   version="1.1"
   sodipodi:docname="leave-roundabout.svg" >

  <path
     d="m 9.9345767,4.6815187 c 4.8170603,-10e-8 7.2285803,5.8236093 3.8228163,9.2293713 -3.405763,3.405763 -9.2293704,0.994243 -9.2293704,-3.822817 0.00336,-2.9845664 2.421988,-5.4031984 5.4065541,-5.4065543 m 0,9.9594423 c 4.0564713,0 6.0872253,-4.904091 3.2192133,-7.7721022 -2.86801,-2.8680111 -7.7721007,-0.8372579 -7.7721009,3.2192142 0.00284,2.513315 2.0395738,4.55005 4.5528876,4.552888 m 0,-10.2439978 c -5.0705896,7e-7 -7.6090305,6.1301148 -4.0240166,9.7151278 3.5850139,3.585014 9.7151269,1.046572 9.7151269,-4.024018 -0.0036,-3.1416249 -2.549486,-5.6875192 -5.6911103,-5.6911098 z m 0,9.9594428 c -3.8029423,0 -5.7067734,-4.5975864 -3.018013,-7.2863467 2.6887605,-2.6887603 7.2863453,-0.7849288 7.2863453,3.0180137 -0.0026,2.356269 -1.912064,4.265761 -4.2683323,4.268333 z M 16.676015,7.209834 c -0.209909,-0.1853972 -0.530263,0.024948 -0.44358,0.2912568 L 16.689129,8.99077 c 0.122435,0.1908141 -0.04703,0.4343812 -0.268506,0.3859142 h -2.217714 v 0.7113888 c 4.7e-5,2.357355 -1.910978,4.26838 -4.2683323,4.268333 H 9.2231881 v 4.082443 h 1.4227779 v -2.70343 c 2.57891,-0.326179 4.609778,-2.357046 4.935956,-4.935957 h 0.838701 c 0.221475,-0.04847 0.390941,0.1951 0.268506,0.385914 l -0.373488,1.212323 c -0.08668,0.266309 0.233671,0.476654 0.44358,0.291257 l 2.792574,-2.68409 z"
     id="path4"
     fill="#000"
     inkscape:connector-curvature="0"
     sodipodi:nodetypes="cscccscccscccscccccccccccccccccccc" />
</svg>
